<?xml version="1.0" encoding="UTF-8"?>
<!DOCTYPE svg PUBLIC "-//W3C//DTD SVG 1.1//EN" "http://www.w3.org/Graphics/SVG/1.1/DTD/svg11.dtd">
<!-- Creator: CorelDRAW -->
<svg xmlns="http://www.w3.org/2000/svg" xml:space="preserve" width="296.686mm" height="209.903mm" version="1.1" style="shape-rendering:geometricPrecision; text-rendering:geometricPrecision; image-rendering:optimizeQuality; fill-rule:evenodd; clip-rule:evenodd"
viewBox="0 0 50000.6 30000.28"
 xmlns:xlink="http://www.w3.org/1999/xlink"
 xmlns:xodm="http://www.corel.com/coreldraw/odm/2003">
 <defs>
  <style type="text/css">
   <![CDATA[
    .fil2 {fill:#FDD52E}
    .fil1 {fill:#FDD52E;fill-rule:nonzero}
    .fil0 {fill:#C2C1D8;fill-rule:nonzero}
   ]]>
  </style>
 </defs>
 <g id="Camada_x0020_1">
  <metadata id="CorelCorpID_0Corel-Layer"/>
  <path class="fil0" d="M8252.06 8608.15l218.46 3.02 1517.2 20.94 -5.57 403.59 -1517.2 -20.94 -12.65 916.42 1288.08 17.78 -5.56 402.87 -1288.08 -17.78 -12.36 895.85 1517.18 20.94 -5.56 402.87 -1517.18 -20.94 -218.48 -3.01 -205.69 -2.84 41.72 -3021.6 205.69 2.83zm-3562.1 -1892.81l5556.41 76.69 -3.71 267.69 -5556.39 -76.69 3.69 -267.69zm2898.39 823.91l1415.44 19.54 -3.7 267.69 -1415.43 -19.54 -65.53 4748.67 -267.71 -3.69 65.56 -4748.67 3.69 -267.7 267.68 3.7zm-916.83 3623.17l46.48 -3367.44 -2429.33 -33.53 3.69 -267.69 2429.34 33.53 267.68 3.69 -3.69 267.7 -46.47 3367.43 -267.7 -3.69zm4705.41 542.25c-196.48,-2.71 -364.07,-41.9 -502.08,-116.88 -138.01,-75.69 -242.94,-183.56 -314.77,-325.01 -71.12,-140.75 -105.68,-310.06 -102.95,-507.97l4.91 -355.35c2.7,-195.76 41.89,-361.93 116.85,-499.24 75.67,-138.01 183.54,-242.22 323.55,-312.66 140.05,-71.13 308.65,-104.98 505.13,-102.27 112.07,1.55 217.55,16.48 316.48,44.81 98.94,28.33 187.06,68.56 265.79,121.43 78.02,52.15 143.11,115.48 194.61,189.26l-309.5 270.29c-60.05,-70.36 -130.25,-124.54 -211.99,-163.27 -81.07,-37.99 -165.92,-58.33 -254.59,-59.56 -163.14,-2.25 -290.71,42.1 -382.08,132.36 -91.34,90.25 -137.79,218.03 -140.09,384.71l-4.92 355.35c-2.33,170.24 40.52,302.07 127.93,396.22 88.07,94.14 215.09,142.72 379.64,144.99 90.09,1.25 176.21,-18.14 258.33,-56.72 82.83,-39.3 153.83,-95.09 214.44,-168.02l301.62 299.29c-54.91,71.59 -122.41,131.67 -201.85,181.65 -80.14,49.27 -169.33,86.36 -269,111.22 -99.64,24.87 -204.12,36.91 -315.46,35.37zm2576.18 -1303.13c2.1,-152.5 -35.28,-270.78 -113.59,-354.86 -77.57,-84.08 -187.64,-127.46 -330.2,-129.43 -139.04,-1.92 -245.94,32.8 -322.83,104.09 -76.17,70.6 -115.88,172.22 -117.7,303.44l-18.93 1371.77 -423.44 -5.84 41.71 -3021.6 423.43 5.84 -16.02 1160.08c60.86,-91.06 134.22,-163.96 220.84,-218.67 108.07,-68.76 227.01,-101.87 357.49,-100.07 234.08,3.24 413.89,82.33 540.16,237.31 126.27,154.99 187.12,372.2 183.28,651.67l-18.08 1309.35 -424.16 -5.85 18.04 -1307.23z"/>
  <polygon class="fil1" points="15161.53,9417.86 15318.63,9420.03 15485.44,9422.33 16644.03,9438.32 16639.76,9746.51 15481.2,9730.52 15471.53,10430.33 16455.16,10443.9 16450.9,10751.55 15467.29,10737.98 15457.85,11422.08 16616.41,11438.07 16612.17,11745.72 15453.59,11729.73 15286.77,11727.43 15129.68,11725.26 "/>
  <path class="fil1" d="M17063.36 10104.49l323.34 4.47 -3.16 229.24c46.49,-71.07 102.53,-127.84 168.67,-170.07 82.54,-52.51 173.34,-78.33 273.03,-76.96 178.73,2.47 316.05,62.87 412.46,181.22 96.43,118.35 142.9,284.22 139.95,497.62l-13.79 999.89 -323.91 -4.47 13.78 -998.25c1.59,-116.45 -26.94,-206.78 -86.75,-270.98 -59.24,-64.21 -143.29,-97.34 -252.15,-98.85 -106.17,-1.46 -187.8,25.59 -246.54,81.13 -58.19,54.98 -88.54,133.66 -89.94,234.96l-14.39 1042.66 -323.33 -4.47 22.73 -1647.14z"/>
  <path class="fil1" d="M19129.36 10826.44l730.13 10.08 0 0c-7.89,-134.46 -41.11,-239.47 -99.66,-314.49 -58.58,-75.59 -138.2,-114.06 -238.95,-115.45 -122.43,-1.69 -218.31,37.07 -286.58,116.85 -68.27,79.23 -102.92,155.67 -104.94,303.01zm-3.61 260.54c-1.88,136.5 33.17,227.44 103.65,301.01 71.04,74.13 172.9,112.37 305.05,114.19 65.55,0.91 130.74,-11.73 195.56,-37.4 64.82,-25.1 123.3,-61.67 174.85,-108.63l0 0 209.4 215.79 0 0c-82.34,76.88 -174.71,136.28 -277.12,177.67 -101.88,41.38 -204.55,61.63 -306.93,60.22 -152.21,-2.1 -282.35,-32.6 -389.34,-90.96 -106.99,-58.91 -188.15,-143.99 -242.96,-255.28 -55.36,-111.27 -81.68,-244.91 -79.51,-401.44l2.55 -185.79c2.25,-163.03 31.26,-301.86 87.56,-416.48 55.75,-114.63 136.05,-201.27 240.87,-259.95 104.28,-58.7 229.81,-87.31 375.52,-85.3 137.58,1.9 254.65,38.19 351.18,107.78 96.01,70.13 168.85,170.81 218.5,301.51 49.68,130.73 72.98,287.6 70.45,469.58l-1.47 107.81 -1037.81 -14.33z"/>
  <path class="fil1" d="M20621.4 10153.6l323.35 4.47 -3.16 229.7c46.26,-70.35 101.57,-126.83 165.95,-169.49 81.46,-53.6 170.67,-79.45 267.61,-78.11 75.3,1.04 143.39,12.81 203.76,35.32 60.36,22.51 113,55.18 157.91,98.07l-214.65 283.09c-28.2,-35.63 -64.12,-62.66 -107.22,-81.12 -43.08,-18.49 -92.78,-28.39 -150.21,-29.18 -102.38,-1.41 -182.37,26.21 -240.03,81.76 -57.11,56.1 -86.92,134.22 -88.3,234.44l-14.4 1042.66 -323.33 -4.47 22.72 -1647.14z"/>
  <path class="fil1" d="M22475.6 11855.35c-120.78,-1.66 -223.32,-29.62 -307.65,-82.78 -84.31,-53.73 -148.25,-130.98 -191.29,-232.35 -43.01,-100.81 -63.55,-221.91 -61.6,-362.74l5 -362.9c1.97,-141.91 25.31,-262.93 70.01,-362.54 44.72,-100.16 109.15,-175.65 192.74,-227.05 83.6,-50.85 183.62,-76.01 300.08,-74.4 97.49,1.35 186.51,28.03 266.52,80.06 63.14,41.07 116.67,94.51 160.31,160.81l2.84 -206.23 323.91 4.47 -22.05 1597.85c-2.1,151.12 -31.52,280.73 -88.8,387.75 -56.72,107.02 -138.57,188.23 -245.5,242.56 -106.39,54.88 -234.06,80.74 -383.56,78.67 -123.5,-1.7 -234.22,-25.98 -331.08,-73.37 -97.4,-47.4 -172.33,-113.43 -225.36,-197.59l221.58 -195.22c41.98,58.55 91.74,104.2 149.8,136.95 58.6,32.24 119.57,49.33 184.04,50.22 124.03,1.71 220.37,-31.09 289.01,-98.39 68.65,-67.32 103.58,-163.26 105.29,-288.39l2.9 -209.53c-33.58,60.51 -80.53,112.22 -140.84,155.07 -75.49,54.22 -167.41,80.58 -276.3,79.07zm428.7 -1072.15l0.05 -3.25c0.54,-67.97 -11.11,-127.16 -35.48,-176.55 -24.8,-49.64 -61.1,-88.08 -108.94,-114.74 -47.84,-26.66 -105.63,-40.46 -174.41,-41.4 -107.24,-1.49 -190.05,30.96 -250,96.76 -59.41,65.82 -89.97,159.12 -91.63,279.36l-4.95 358.57c-1.64,119.7 26.34,212.73 83.94,278.54 58.13,65.8 140.01,99.44 247.26,100.92 68.78,0.95 126.92,-11.79 175.51,-38.2 48.58,-26.43 85.94,-64.37 112.12,-114.93 25.73,-49.78 39.02,-109.17 40.37,-178.69l0.05 -3.33 6.11 -443.06z"/>
  <path class="fil2" d="M23515.83 11529.01l333.55 47.31 -471.02 825.93 309.02 42.19c-31.74,100.1 -476.34,770.54 -509.17,859.49l620.65 -500.77c27.95,-24.13 48.56,-42.5 76.88,-65.97l545.73 -441.46 -431.41 -62.37c96.06,-126.3 870.21,-890.55 903.5,-950.06l-443.8 -60.27c38.35,-66.78 889.93,-904.41 961.57,-1004.77l-1137.75 -153.96c-41.76,-5.63 -83.94,121.71 -103.15,160.26 -32.77,65.77 -62.9,123.41 -94.66,186.83l-559.94 1117.62z"/>
  <path class="fil1" d="M9929.15 13099.33c10.26,0.14 18.56,3.47 25,9.99 6.35,6.52 9.45,14.92 9.31,25.26 -0.16,10.26 -3.49,18.65 -10.01,24.99 -6.6,6.35 -15,9.45 -25.25,9.31l-325.85 -4.5 -12.39 897.57c-0.16,11.13 -3.93,20.3 -11.35,27.5 -7.39,7.2 -16.67,10.73 -27.8,10.57 -11.11,-0.15 -20.38,-3.93 -27.58,-11.33 -7.1,-7.41 -10.64,-16.67 -10.48,-27.8l12.39 -897.58 -325.85 -4.49c-10.27,-0.14 -18.66,-3.48 -24.99,-10 -6.35,-6.52 -9.46,-15 -9.31,-25.26 0.14,-10.35 3.47,-18.65 10,-24.99 6.52,-6.35 15,-9.45 25.26,-9.31l728.9 10.07zm301.98 1010.08c-11.22,-0.15 -20.38,-3.93 -27.58,-11.33 -7.2,-7.41 -10.74,-16.67 -10.57,-27.8l12.81 -928.53c0.15,-11.13 3.94,-20.29 11.33,-27.49 7.41,-7.21 16.68,-10.73 27.88,-10.58l619.38 8.55c10.34,0.15 19.24,3.92 26.88,11.33 7.64,7.41 11.34,16.68 11.18,27.81 -0.13,10.34 -4.08,19.25 -11.93,26.88 -7.85,7.63 -16.86,11.42 -27.21,11.27l-580.75 -8.01 -5.33 386.27 426.26 5.89c11.13,0.15 20.3,3.93 27.5,11.33 7.2,7.41 10.72,16.67 10.57,27.89 -0.16,11.13 -3.93,20.47 -11.35,28.1 -7.4,7.64 -16.68,11.43 -27.81,11.27l-426.26 -5.88 -5.33 386.28 580.76 8.01c10.35,0.14 19.24,4.18 26.87,12.02 7.63,7.76 11.34,16.86 11.19,27.2 -0.14,11.13 -4.1,20.29 -11.93,27.49 -7.85,7.2 -16.86,10.72 -27.2,10.58l-619.36 -8.55zm1390.86 32.07c-90.14,-1.24 -173.46,-25.79 -250.1,-73.63 -76.66,-47.84 -137.16,-111.8 -181.53,-191.81 -44.46,-80.09 -65.98,-166.04 -64.71,-257.85 1.27,-91.9 24.97,-177.05 71.1,-255.37 46.21,-78.4 108.02,-140.42 185.52,-186.13 77.41,-45.72 162.16,-67.94 253.97,-66.67 120.24,1.66 225.69,41.29 316.53,118.98 7.65,6.1 11.37,14.76 11.2,25.89 -0.13,10.35 -3.65,19.51 -10.64,27.59 -6.97,7.99 -16.51,11.95 -28.5,11.78 -9.48,-0.13 -20.11,-5.41 -32.04,-15.83 -64.41,-59.33 -150.24,-89.73 -257.62,-91.21 -75.55,-1.04 -146.42,18.15 -212.63,57.68 -66.28,39.43 -119.19,92.52 -158.71,159.37 -39.54,66.93 -59.92,138.57 -60.97,214.99 -1.09,78.94 17.02,152.41 54.34,220.31 37.24,67.91 88.4,122.09 153.59,162.47 65.09,40.38 135.85,61.1 212.28,62.15 101.29,1.4 190.56,-28.67 267.85,-90.3 6.06,-4.18 12.52,-6.27 19.4,-6.17 10.34,0.14 19.5,4.09 27.57,11.94 8.06,7.86 12.01,17.39 11.87,28.52 -0.17,11.21 -3.33,20.12 -9.43,26.91 -74.82,72.88 -180.96,108.29 -318.34,106.39zm668.93 -3.64c-11.21,-0.15 -20.38,-3.93 -27.58,-11.33 -7.21,-7.41 -10.72,-16.67 -10.58,-27.8l12.82 -928.53c0.16,-11.13 3.93,-20.29 11.34,-27.49 7.4,-7.21 16.66,-10.73 27.89,-10.58 11.13,0.16 20.28,3.94 27.5,11.34 7.2,7.4 10.72,16.67 10.56,27.8l-5.87 424.96 650.33 8.98 5.86 -424.96c0.15,-11.13 3.94,-20.3 11.33,-27.5 7.4,-7.2 16.68,-10.73 27.81,-10.57 10.34,0.14 19.34,3.92 26.88,11.32 7.64,7.41 11.42,16.68 11.27,27.81l-12.81 928.53c-0.17,11.13 -4.2,20.29 -12.03,27.48 -7.75,7.2 -16.86,10.73 -27.2,10.58 -11.13,-0.15 -20.29,-3.93 -27.5,-11.33 -7.2,-7.41 -10.73,-16.67 -10.56,-27.8l5.99 -434.01 -650.33 -8.97 -5.99 434c-0.14,11.13 -3.93,20.3 -11.33,27.5 -7.4,7.2 -16.67,10.73 -27.8,10.57zm2324.25 -973.84c10.34,0.15 18.64,3.65 24.98,10.61 6.34,6.96 9.44,15.61 9.29,25.95 -0.13,9.39 -2.42,17.54 -6.76,24.35l-363.27 564.29 -4.66 337.42c-0.16,11.12 -3.93,20.29 -11.35,27.49 -7.39,7.2 -16.66,10.73 -27.88,10.57 -11.13,-0.15 -20.3,-3.93 -27.5,-11.33 -7.2,-7.41 -10.72,-16.67 -10.56,-27.8l4.66 -337.42 -347.56 -574.1c-5,-9.55 -7.5,-17.67 -7.41,-24.54 0.15,-10.35 3.74,-18.9 10.7,-25.68 6.96,-6.77 15.97,-10.04 27.19,-9.88 11.13,0.15 21.31,5.42 30.64,15.9l326.01 547.98 335.76 -529.89c6.21,-9.31 12.03,-15.66 17.65,-19.06 5.69,-3.32 12.33,-4.96 20.07,-4.86zm650.68 1027.77c-97.02,-1.34 -184.44,-25.06 -262.41,-71.27 -77.89,-46.12 -138.85,-108.79 -182.88,-187.92 -43.96,-79.21 -65.26,-167.33 -63.92,-264.27 1.33,-96.16 25.04,-183.22 71.17,-261.2 46.21,-77.88 108.87,-138.84 188.01,-182.88 79.2,-43.95 167.24,-65.26 264.26,-63.92 96.16,1.33 183.22,25.05 261.2,71.17 77.88,46.21 138.84,108.88 182.88,188.01 43.95,79.21 65.27,166.9 63.95,263.05 -1.34,96.94 -25.08,184.44 -71.19,262.41 -46.22,77.89 -108.89,138.85 -188,182.8 -79.22,44.04 -166.91,65.35 -263.07,64.02zm1.07 -77.29c81.54,1.13 156.15,-16.88 223.61,-54.21 67.48,-37.25 120.81,-89.12 159.89,-155.54 39.19,-66.41 59.26,-140.92 60.4,-223.25 1.11,-81.64 -16.9,-156.15 -54.23,-223.62 -37.25,-67.47 -89.11,-120.8 -155.54,-159.89 -66.41,-39.18 -140.48,-59.33 -222.02,-60.46 -82.43,-1.13 -157.37,16.96 -224.85,54.29 -67.47,37.25 -120.79,89.12 -159.89,155.54 -39.18,66.41 -59.33,140.4 -60.44,222.03 -1.14,82.34 16.95,157.37 54.27,224.84 37.25,67.47 89.13,120.8 155.54,159.89 66.41,39.18 140.84,59.25 223.26,60.38zm1200.7 101.62c-74.69,-1.03 -141.26,-16.73 -199.62,-47.19 -58.46,-30.46 -103.61,-72.3 -135.48,-125.52 -31.88,-53.23 -47.4,-113.79 -46.45,-181.6l8.8 -638.75c0.17,-12 3.96,-21.43 11.36,-28.2 7.39,-6.76 16.65,-10.03 27.88,-9.87 11.98,0.16 21.34,3.68 28.11,10.65 6.77,6.96 10.11,16.48 9.94,28.48l-8.8 638.75c-0.72,52.34 11.75,99.3 37.35,140.87 25.61,41.57 61.67,74.33 108.12,98.1 46.46,23.86 99.78,36.16 159.84,36.99 60.09,0.83 113.72,-10 160.8,-32.56 47.1,-22.48 84.24,-54.23 111.4,-95.08 27.17,-40.84 41.12,-87.43 41.84,-139.77l8.83 -638.75c0.16,-12 3.94,-21.42 11.33,-28.19 7.41,-6.77 16.67,-10.03 27.88,-9.88 12.01,0.17 21.44,3.69 28.21,10.65 6.77,6.97 10.03,16.49 9.87,28.49l-8.83 638.75c-0.92,67.81 -18.27,127.92 -52.05,180.24 -33.76,52.32 -80.33,92.89 -139.5,121.73 -59.18,28.83 -126.15,42.69 -200.83,41.66zm1352.24 -61.16c6.69,12.09 9.95,21.96 9.84,29.7 -0.13,9.48 -3.88,16.73 -11.26,21.76 -7.27,5.03 -17.84,7.49 -31.58,7.3 -8.59,-0.12 -15.44,-1.95 -20.52,-5.41 -5.18,-3.55 -9.79,-8.75 -13.96,-15.67l-231.78 -381.9 -23.12 -0.32 -207.36 -2.86 -4.97 360.63c-0.16,11.12 -3.76,20.29 -10.73,27.5 -6.97,7.21 -16.41,10.73 -28.4,10.56 -11.23,-0.15 -20.38,-3.93 -27.59,-11.33 -7.2,-7.41 -10.73,-16.67 -10.57,-27.8l12.82 -928.53c0.16,-11.99 3.94,-21.42 11.33,-28.19 7.41,-6.76 16.67,-10.03 27.88,-9.87l245.95 3.39c61.83,0.85 117.02,14.49 165.53,40.9 48.6,26.41 86.35,63.01 113.19,109.73 26.83,46.81 39.84,99.77 39.01,158.98 -0.97,70.42 -21.36,130.92 -61.1,181.41 -39.84,50.59 -92.82,84.81 -159.26,102.76l216.65 357.26zm-321.31 -421.74c47.2,0.65 89.41,-8.25 126.54,-26.61 37.2,-18.44 66.52,-44.64 88.04,-78.69 21.52,-34.06 32.56,-72.51 33.15,-115.46 0.61,-43.73 -9.37,-83.17 -29.93,-118.24 -20.56,-35.07 -49.13,-62.51 -85.82,-82.32 -36.59,-19.81 -78.54,-30.04 -125.74,-30.69l-207.36 -2.86 -6.23 452 207.35 2.87zm1171.89 492.7c-10.33,-0.15 -19.33,-3.92 -26.88,-11.33 -7.63,-7.41 -11.43,-16.68 -11.26,-27.81l12.8 -928.53c0.16,-11.12 4.2,-20.29 12.03,-27.48 7.76,-7.2 16.85,-10.73 27.2,-10.58 11.12,0.15 20.3,3.93 27.5,11.33 7.2,7.41 10.72,16.67 10.56,27.8l-12.38 897.58 529.3 7.3c11.13,0.15 20.29,3.5 27.51,10.03 7.21,6.54 10.74,15.02 10.6,25.28 -0.13,10.35 -3.9,18.64 -11.3,24.97 -7.39,6.34 -16.64,9.43 -27.77,9.27l-567.91 -7.83zm900.45 12.42c-11.22,-0.15 -20.38,-3.93 -27.58,-11.33 -7.2,-7.41 -10.73,-16.67 -10.57,-27.8l12.81 -928.53c0.15,-11.13 3.94,-20.29 11.33,-27.49 7.41,-7.2 16.68,-10.73 27.89,-10.57 11.12,0.15 20.3,3.93 27.5,11.33 7.2,7.41 10.72,16.67 10.57,27.8l-12.81 928.52c-0.16,11.13 -3.93,20.3 -11.35,27.5 -7.39,7.2 -16.66,10.73 -27.79,10.57zm350.54 4.84c-11.13,-0.15 -20.28,-3.93 -27.5,-11.33 -7.2,-7.41 -10.72,-16.67 -10.56,-27.8l12.82 -928.53c0.14,-11.13 3.93,-20.29 11.33,-27.49 7.4,-7.21 16.67,-10.73 27.8,-10.58l619.45 8.55c10.25,0.15 19.25,3.92 26.88,11.33 7.64,7.41 11.34,16.68 11.18,27.81 -0.13,10.34 -4.09,19.25 -11.93,26.88 -7.84,7.63 -16.95,11.42 -27.2,11.27l-580.85 -8.01 -5.34 386.27 426.28 5.89c11.21,0.15 20.38,3.93 27.59,11.33 7.2,7.41 10.71,16.67 10.57,27.89 -0.16,11.13 -3.95,20.47 -11.35,28.1 -7.42,7.64 -16.69,11.43 -27.89,11.27l-426.28 -5.88 -5.87 424.96c-0.14,11.13 -3.93,20.3 -11.32,27.5 -7.32,7.2 -16.68,10.73 -27.81,10.57zm977.83 13.5c-11.23,-0.16 -20.38,-3.94 -27.58,-11.34 -7.21,-7.4 -10.74,-16.67 -10.58,-27.8l12.82 -928.52c0.14,-11.13 3.93,-20.3 11.33,-27.5 7.41,-7.2 16.68,-10.72 27.88,-10.57l619.37 8.55c10.35,0.14 19.25,3.92 26.88,11.33 7.65,7.41 11.35,16.67 11.18,27.8 -0.13,10.35 -4.08,19.25 -11.92,26.88 -7.86,7.63 -16.87,11.42 -27.21,11.28l-580.76 -8.02 -5.33 386.28 426.26 5.88c11.13,0.16 20.31,3.94 27.5,11.34 7.2,7.4 10.73,16.67 10.58,27.88 -0.16,11.13 -3.93,20.47 -11.35,28.11 -7.4,7.64 -16.67,11.42 -27.81,11.27l-426.26 -5.89 -5.33 386.28 580.76 8.02c10.34,0.14 19.24,4.18 26.87,12.02 7.64,7.76 11.34,16.85 11.19,27.2 -0.15,11.13 -4.11,20.29 -11.94,27.49 -7.85,7.19 -16.85,10.72 -27.2,10.58l-619.35 -8.55z"/>
 </g>
</svg>
